<svg xmlns="http://www.w3.org/2000/svg" viewBox="0 0 512 512" width="512" height="512">
  <rect width="512" height="512" fill="#F1EFE8"/>
  <g fill="none" stroke="#141414" stroke-linecap="round" stroke-linejoin="round">
    <!-- forma fina -->
    <path stroke-width="14" d="M214 128
      C252 110 302 118 338 144
      C380 172 421 209 411 260
      C403 302 365 320 336 347
      C303 379 251 383 213 362
      C180 344 148 327 140 286
      C132 239 148 197 181 169
      C199 152 190 139 214 128 Z"/>
    <!-- forma gruesa -->
    <path stroke-width="26" d="M256 116
      C298 116 317 165 354 189
      C396 217 420 258 397 305
      C378 342 327 332 299 355
      C271 377 238 374 210 360
      C173 341 131 347 120 300
      C109 258 131 215 159 192
      C192 164 216 116 256 116 Z"/>
  </g>
</svg>
